# xmcd
#
# Track frame offsets: 
#        150
#        21557
#        40966
#        56997
#        78237
#        98601
#        119177
#        147707
#        164370
#
# Disc length: 2394 seconds
#
# Revision: 1
# Processed by: cddbd v1.5.2PL0 Copyright (c) Steve Scherf et al.
# Submitted via: ExactAudioCopy v0.99pb4
#
DISCID=85095809
DTITLE=Lali Puna - I Thought I Was Over That - Rare, Remixed and B-Sid
DTITLE=es [CD2)
DYEAR=2005
DGENRE=Electronic
TTITLE0=Thomas Leboeg: Nin-Com-Pop Rmx
TTITLE1=Boom Bip: Micronomic Rmx
TTITLE2=Dntel: Faking the Books Rmx
TTITLE3=To Rococo Rot: Grin and Bear Rmx
TTITLE4=Alias: Alienation Rmx
TTITLE5=Lali Puna: Left Handed Dub
TTITLE6=Flowchart: Fast Forward Rmx
TTITLE7=Sixtoo: Small Things Rmx
TTITLE8=Two Lone Swordsmen: Nin-Com-Pop Rmx
EXTD=
EXTT0=
EXTT1=
EXTT2=
EXTT3=
EXTT4=
EXTT5=
EXTT6=
EXTT7=
EXTT8=
PLAYORDER=
